<svg id="Capa_1" data-name="Capa 1" xmlns="http://www.w3.org/2000/svg" viewBox="0 0 204.48 144"><defs><style>.cls-1,.cls-2{fill:#f2f2f2;}.cls-2{stroke:#f2f2f2;stroke-miterlimit:10;}</style></defs><path class="cls-1" d="M98.13,16.21c0,1.66,0,3.31,0,5,0,.44.13.55.54.52.61,0,1.22,0,1.83,0,.3,0,.39.1.38.39,0,.63,0,1.26,0,1.88,0,.38.1.49.48.49,1.5,0,3,0,4.5,0,.39,0,.55.08.52.49,0,.57,0,1.15,0,1.72s.15.57.58.55c.59,0,1.18,0,1.77,0,.33,0,.42.11.41.43,0,.64,0,1.29,0,1.94,0,.3.09.39.39.39.64,0,1.29,0,1.94,0,.31,0,.43.08.42.42,0,.6,0,1.21,0,1.82,0,.39.07.55.49.52.59,0,1.18,0,1.77,0,.42,0,.5.14.49.52,0,1.48,0,3,0,4.45,0,.44.12.56.55.53.58,0,1.18,0,1.76,0,.35,0,.46.09.45.44,0,1.5,0,3,0,4.51,0,.41.08.57.52.55.74,0,1.49,0,2.23,0,.32.43.18.92.19,1.38,0,1.54,0,1.54-1.54,1.54h-3.3a1.47,1.47,0,0,1-.83-.14,1.17,1.17,0,0,1-.19-.87c0-1.24,0-2.47,0-3.71,0-.73,0-.76-.78-.76h-.92c-.93,0-1-.11-1-1.06s0-2.21,0-3.31,0-1.11-1.07-1.11c-.31,0-.61,0-.92,0-.56,0-.7-.16-.74-.72s0-1,0-1.43-.15-.59-.57-.58-1,0-1.43,0-.7-.17-.73-.73,0-1,0-1.48-.17-.51-.52-.52-1,0-1.43,0-.76-.17-.78-.8c0-.47,0-.95,0-1.43,0-.32-.15-.49-.49-.49q-2.06,0-4.11,0c-.32,0-.49.14-.49.48s0,.41,0,.62V39.73c0,.23,0,.46,0,.68a.6.6,0,0,1-.64.65c-.48,0-1,0-1.43,0s-.65.06-.66.66c0,1.25,0,2.51,0,3.76,0,.94-.12,1-1.06,1.06H93.38c-.39,0-.55.17-.54.55s0,.88,0,1.32a1.07,1.07,0,0,1-.16.71A3.5,3.5,0,0,1,91,49.3c-.88,0-.9,0-.9.89,0,.4,0,.8,0,1.2s-.2.62-.59.63c-1.56,0-3.12,0-4.68,0-.21,0-.46-.08-.49-.32a4.84,4.84,0,0,1,.1-2.56c.74,0,1.49-.05,2.23,0,.44,0,.55-.13.52-.55,0-.6,0-1.22,0-1.82,0-.31.1-.4.39-.39.67,0,1.33,0,2,0,.27,0,.37-.08.36-.36,0-.64,0-1.29,0-1.94,0-.34.07-.47.44-.45.59,0,1.18,0,1.77,0s.55-.17.54-.59c0-1.44,0-2.89,0-4.33,0-.5.15-.62.61-.59s1.18,0,1.77,0c.31,0,.38-.1.38-.39q0-5.09,0-10.17c0-.32-.08-.43-.41-.42a16,16,0,0,1-1.83,0c-.46,0-.52.16-.51.55,0,1.43,0,2.86,0,4.28,0,.58-.17.72-.7.67s-1.1,0-1.65,0c-.34,0-.42.12-.41.43,0,.63,0,1.26,0,1.88,0,.36-.1.45-.45.45-1.5,0-3,0-4.51,0-.42,0-.57.1-.54.53,0,.61,0,1.22,0,1.83,0,.29-.07.4-.38.4H73.83c-.31,0-.38-.12-.38-.4,0-2.47,0-5,0-7.42,0-.33.1-.43.42-.42.65,0,1.3,0,1.94,0,.3,0,.4-.08.39-.38,0-.65,0-1.3,0-1.94,0-.32.08-.44.41-.43.59,0,1.18,0,1.77,0,.43,0,.62-.08.58-.55s0-1.15,0-1.72c0-.41.13-.5.52-.49,1.48,0,3,0,4.45,0,.44,0,.56-.12.53-.54,0-.57,0-1.15,0-1.72,0-.4.11-.51.51-.5,3.29,0,6.58,0,9.87,0,.46,0,.62-.1.61-.59,0-1.63,0-3.27,0-4.91Z"/><path class="cls-1" d="M84.42,49.13c0,.76,0,1.52,0,2.27,0,.33,0,.47.42.46,1.56,0,3.11,0,4.67,0,.33,0,.41-.1.4-.42,0-.64,0-1.29,0-1.93,0-.34.1-.41.41-.41.78,0,1.56,0,2.34,0a.9.9,0,0,1,.64-.17q2.05,0,4.11,0c.75,0,.89.16.92.91,0,.45,0,.91,0,1.36s.15.46.46.46c1.38,0,2.77,0,4.16,0,.34,0,.46-.18.46-.5s0-.91,0-1.37c0-.69.17-.83.85-.86.46,0,.91,0,1.37,0s.51-.16.52-.52,0-1,0-1.42.17-.77.75-.78c2.37,0,4.75,0,7.12,0a.83.83,0,0,1,.54.17c1.7,0,3.41,0,5.12,0,.32,0,.37-.11.36-.39,0-.78,0-1.56,0-2.34,2.62,0,5.25,0,7.88,0,.28,0,.35.1.35.36,0,.65,0,1.3,0,1.94,0,.35.08.47.44.46.63,0,1.26,0,1.88,0,.37,0,.45.12.44.45,0,.63,0,1.26,0,1.89,0,.32.08.43.41.42.6,0,1.22,0,1.82,0s.53.14.52.54c0,1.49,0,3,0,4.46,0,.4.1.52.51.5.6,0,1.21,0,1.82,0,.31,0,.43,0,.43.4q0,3.7,0,7.42c0,.33-.09.42-.42.41-.6,0-1.21,0-1.82,0-.39,0-.54.07-.52.49,0,.62,0,1.25,0,1.88,0,.31-.1.39-.39.38-.63,0-1.26,0-1.88,0-.37,0-.51.07-.49.46,0,.63,0,1.26,0,1.89,0,.33-.11.41-.42.4-.65,0-1.3,0-1.94,0-.3,0-.41.07-.4.38,0,.63,0,1.26,0,1.89,0,.41-.13.51-.51.49-.63,0-1.26,0-1.89,0-.27,0-.36.08-.36.36,0,.64,0,1.29,0,1.94,0,.33,0,.46-.43.46q-6.42,0-12.85,0c-.35,0-.46-.09-.44-.45,0-.57,0-1.14,0-1.71s-.07-.64-.57-.6-1.22,0-1.83,0c-.28,0-.36-.08-.35-.35,0-.63,0-1.26,0-1.89,0-.39-.07-.54-.49-.51-.63,0-1.26,0-1.88,0-.31,0-.39-.09-.38-.39,0-.64,0-1.29,0-1.94,0-.31-.07-.43-.41-.42-.65,0-1.29,0-1.94,0-.34,0-.41.11-.41.42,0,1.53,0,3,0,4.57,0,.39-.09.53-.5.51-.59,0-1.18,0-1.77,0-.42,0-.51.13-.49.51,0,.63,0,1.26,0,1.89,0,.27-.07.36-.35.36-.57,0-1.15,0-1.71,0s-.74.17-.69.72,0,1.1,0,1.65c0,.31-.08.4-.38.39-.61,0-1.22,0-1.83,0-.41,0-.58.07-.54.52s0,1.18,0,1.77c0,.38-.11.47-.48.47H86.64c-2.4,0-4.8,0-7.2,0-.38,0-.53-.07-.51-.49,0-.63,0-1.26,0-1.88,0-.31-.1-.39-.4-.38-.64,0-1.29,0-1.94,0-.31,0-.43-.07-.42-.41,0-.63,0-1.26,0-1.88,0-.39-.13-.48-.49-.47-.62,0-1.25,0-1.88,0-.29,0-.4-.08-.39-.38,0-.63,0-1.26,0-1.89,0-.42-.13-.51-.52-.49-.59,0-1.18,0-1.77,0-.37,0-.48-.1-.47-.47,0-1.41,0-2.82,0-4.23,0-.79,0-.79-.83-.79-.51,0-1,0-1.54,0-.3,0-.38-.09-.38-.38,0-2.5,0-5,0-7.49,0-.32.13-.37.4-.36.65,0,1.3,0,1.94,0,.33,0,.42-.1.41-.42,0-1.5,0-3,0-4.51,0-.43.08-.58.55-.57,1.48,0,3,0,4.45,0,.41,0,.52-.12.5-.51,0-.63,0-1.26,0-1.88,0-.27.07-.37.35-.37Z"/><path class="cls-1" d="M76.19,57.32c0-.7,0-1.41,0-2.11,0-.47.07-.65.6-.63,1.44,0,2.89,0,4.33,0,.42,0,.61.07.57.55s0,1.21,0,1.82c0,.3.08.4.39.39.66,0,1.33,0,2,0,.31,0,.39.09.38.39,0,.66,0,1.33,0,2,0,.32-.12.37-.4.37H81.69a1.06,1.06,0,0,1-.75.19H77a1.08,1.08,0,0,1-.76-.19h0A4.34,4.34,0,0,1,76.19,57.32Z"/><path class="cls-1" d="M109.08,54.6c-.78,0-1.55,0-2.33,0-.32,0-.42-.09-.41-.42q0-1,0-1.92c0-.32.09-.43.41-.42.78,0,1.55,0,2.33,0a4.41,4.41,0,0,1,2.76,0h0a4.34,4.34,0,0,1,0,2.76h0A4.34,4.34,0,0,1,109.08,54.6Z"/><path class="cls-1" d="M76.19,60.08h5.5c0,.78,0,1.55,0,2.33,0,.33-.1.42-.42.41H76.61c-.32,0-.43-.08-.42-.41C76.21,61.64,76.19,60.86,76.19,60.08Z"/><path class="cls-1" d="M111.84,51.84h-2.76c0-.77,0-1.55,0-2.32,0-.32.08-.43.41-.42.66,0,1.32,0,2,0,.28,0,.36.09.36.36C111.83,50.25,111.84,51.05,111.84,51.84Z"/><path class="cls-1" d="M111.84,54.6V51.84c.78,0,1.55,0,2.33,0,.32,0,.42.09.41.42q0,1,0,2c0,.28-.08.36-.35.36C113.43,54.58,112.64,54.6,111.84,54.6Z"/><path class="cls-1" d="M109.08,54.6h2.76c0,.77,0,1.55,0,2.33,0,.32-.09.42-.41.41-.66,0-1.33,0-2,0-.27,0-.36-.09-.35-.36C109.1,56.19,109.08,55.39,109.08,54.6Z"/><path class="cls-1" d="M76.19,57.32v2.76c-.77,0-1.55,0-2.33,0-.32,0-.42-.09-.41-.41,0-.66,0-1.33,0-2,0-.27.09-.36.36-.35C74.6,57.34,75.4,57.32,76.19,57.32Z"/><path class="cls-2" d="M171.08,127.38c0-6.66,0-13,0-19.3,0-8.41,3.33-11.68,11.8-11.73,1.37,0,2.74,0,4.11,0,3.4.16,5.4,2,5.45,5.36.12,7.6.07,15.2,0,22.79,0,1.69-.29,3.13-2.71,3s-2-1.61-2-3.07c-.09-5.16-.1-5.13-5.38-5.2-1.45,0-3,.49-4.34-.46-.75-.55-1.81-1-1.44-2.33s1.37-.87,2.16-.89c2.24-.06,4.49-.14,6.72,0,2.06.14,2.93-.52,2.83-2.7-.15-3.11,0-6.23-.05-9.34,0-.71.29-1.65-.46-2.07-2.9-1.61-6.1-.8-9.1-.62-2,.12-3.15,2.09-3.18,4.33-.06,6-.28,11.94-.15,17.91C175.41,126.46,174.46,128.15,171.08,127.38Z"/><path class="cls-2" d="M87.26,127.37c0-8,0-15.66,0-23.33,0-6,1.49-7.51,7.44-7.53,1.61,0,3.23,0,4.85,0A2.08,2.08,0,0,1,101.74,99c-.07,1.55-1.3,1.17-2.22,1.22s-2,0-3,0c-5.11,0-5.11,0-5.13,5.16,0,4.7,0,4.65,5,4.81,1.14,0,3-.92,3.11,1.44.06,2.1-1.48,2.19-3.08,2.3s-3.91-.85-4.67,1.24a12.87,12.87,0,0,0,0,7.33c.32,1.35,1.65,1.33,2.77,1.36,1.74.05,3.48,0,5.22.1a2,2,0,0,1,2,2.18c0,1.59-1.29,1.22-2.19,1.23C95.34,127.39,91.13,127.37,87.26,127.37Z"/><path class="cls-2" d="M24.06,127.75c-9-.07-12-3.11-12.06-12.16,0-3-.11-6,0-9a11.18,11.18,0,0,1,14.75-9.92,2.17,2.17,0,0,1,1.6,2.23c0,1.56-1,1.47-2,1.4-9.92-.74-10.37,3.2-10,10.82.09,2,0,4,0,6,.08,4.94,1.81,6.71,6.73,6.91.87,0,1.74,0,2.62,0,1.58,0,2.71.52,2.65,2.33-.08,2.15-1.77,1.13-2.81,1.36A7.41,7.41,0,0,1,24.06,127.75Z"/><path class="cls-2" d="M56.93,115.69c0-3.21-.13-6.42,0-9.62.26-4.91,2.74-7.89,7.21-9,5-1.26,10.22.09,12.28,3.16A10.67,10.67,0,0,1,76,113c-1,1.28-.84,2.08-.22,3.32,1.38,2.8,1.09,5.85,1,8.83-.07,1.6-1.24,2.08-2.69,2.13-1.73.06-1.42-1.2-1.46-2.23,0-.85,0-1.71,0-2.56,0-5.62-.84-6.37-6.43-6.52-1,0-2.82,1.08-3-1.1s1.31-2.4,3-2.45a22.75,22.75,0,0,0,3.51-.25c3-.55,4.48-2.62,4.41-6.09-.06-3.28-1.52-5.09-4.54-5.64-5.26-.95-8.22,1.49-8.25,6.87s0,10.48,0,15.72a9.82,9.82,0,0,1-.14,2.55c-.47,1.74-1.94,1.75-3.37,1.7-2.17-.07-.79-1.5-.81-2.31-.06-3.1,0-6.2,0-9.3Z"/><path class="cls-2" d="M122.86,110.17a4.38,4.38,0,0,1,1,0c2.49.64,6-1.72,7.46,1.62,1.91,4.29-.38,11.5-4,13.51-4.84,2.72-10.18,1.51-15.32,1.4-1.45,0-1.41-1.67-1.3-2.85.16-1.7,1.22-.49,1.86-.49,3.4,0,6.82.37,10.18-.24s5.88-5.25,4.55-8.51c-.5-1.22-1.54-.93-2.43-.93-3.72,0-7.45-.08-11.17,0-2.14,0-3.18-.75-3-3,.09-1.49,0-3,0-4.47.16-5.29,3-8.64,8.27-9.2,3.37-.35,6.79-.19,10.19-.21a2,2,0,0,1,2.29,2.1c.07,1.78-1.32,1.33-2.27,1.35-2.55,0-5.11-.06-7.66,0-5.07.19-7.48,3.21-6.83,8.24.16,1.25.68,1.64,1.82,1.62C118.61,110.15,120.74,110.17,122.86,110.17Z"/><path class="cls-2" d="M153.09,110.17a4.29,4.29,0,0,1,.95,0c2.5.64,6-1.72,7.47,1.62,1.9,4.29-.39,11.5-4,13.51-4.84,2.72-10.17,1.51-15.32,1.4-1.45,0-1.4-1.67-1.29-2.85.15-1.7,1.22-.49,1.86-.49,3.4,0,6.81.37,10.18-.24s5.88-5.25,4.55-8.51c-.51-1.22-1.54-.93-2.44-.93-3.72,0-7.44-.08-11.16,0-2.14,0-3.19-.75-3-3,.1-1.49,0-3,0-4.47.17-5.29,3-8.64,8.27-9.2,3.37-.35,6.8-.19,10.2-.21a2,2,0,0,1,2.29,2.1c.06,1.78-1.32,1.33-2.28,1.35-2.55,0-5.11-.06-7.65,0-5.07.19-7.48,3.21-6.84,8.24.16,1.25.69,1.64,1.83,1.62C148.84,110.15,151,110.17,153.09,110.17Z"/><path class="cls-2" d="M39.91,127.2c0-5.12,0-10.09,0-15.07,0-1.11,0-2.22,0-3.33s1-1.4,2.54-1.43c1.86,0,1.67.74,1.67,1.52,0,5.2,0,10.4,0,15.6C44.14,127.15,43.91,127.29,39.91,127.2Z"/><rect class="cls-1" x="40.28" y="94.52" width="4.09" height="10.33" rx="1.38"/><rect class="cls-1" x="40.7" y="94.74" width="3.46" height="10.33" rx="1.38" transform="translate(-57.47 142.33) rotate(-90)"/></svg>